<?xml version="1.0" standalone="no"?>
<!DOCTYPE svg PUBLIC "-//W3C//DTD SVG 20010904//EN"
 "http://www.w3.org/TR/2001/REC-SVG-20010904/DTD/svg10.dtd">
<svg version="1.0" xmlns="http://www.w3.org/2000/svg"
 width="480.000000pt" height="480.000000pt" viewBox="0 0 480.000000 480.000000"
 preserveAspectRatio="xMidYMid meet">

<g transform="translate(0.000000,480.000000) scale(0.100000,-0.100000)"
fill="#000000" stroke="none">
<path d="M580 4235 c-60 -141 -92 -209 -185 -395 -208 -417 -396 -963 -394
-1145 l0 -60 24 110 c42 199 143 541 209 707 69 174 195 445 264 566 23 41 55
104 72 140 16 37 30 60 30 51 0 -27 -49 -138 -161 -359 -122 -243 -242 -538
-293 -721 -116 -419 -127 -471 -128 -654 0 -66 -4 -102 -9 -90 -4 11 -8 -521
-8 -1182 l-1 -1203 2284 0 2284 0 6 31 c3 17 6 73 6 124 l0 93 48 -5 c26 -2
75 -8 110 -12 l62 -8 0 28 c0 31 -6 32 -151 44 l-76 6 -7 76 c-3 42 -6 106 -6
142 -1 36 -5 85 -9 108 -5 23 -5 45 -2 49 3 3 6 22 6 42 0 29 5 39 23 47 28
12 28 15 -3 106 -19 55 -25 92 -24 145 1 40 -1 76 -5 82 -4 7 10 20 33 32 65
33 169 136 180 179 43 167 41 119 41 990 l0 830 -48 -14 c-104 -31 -591 -156
-817 -209 -714 -169 -662 -159 -674 -138 -5 9 -16 13 -30 9 -48 -12 -159 12
-262 58 -95 42 -118 48 -259 66 -338 43 -653 105 -730 144 -46 24 -87 63 -201
195 -170 196 -199 230 -199 235 0 3 54 5 120 5 204 0 285 32 334 133 25 50 27
65 27 174 0 65 -5 132 -11 148 -35 93 -111 148 -226 165 -99 14 -317 13 -332
-2 -9 -9 -12 -82 -12 -266 l0 -254 -137 133 c-224 215 -508 439 -685 539 l-58
32 -20 -47z m1209 -306 c44 -15 51 -35 51 -139 0 -84 -2 -93 -25 -116 -20 -20
-33 -25 -68 -22 l-42 3 -3 129 c-1 72 0 136 2 143 6 16 42 17 85 2z m-895
-585 c3 -9 4 -20 0 -25 -9 -15 13 -10 26 6 18 21 29 19 23 -5 -6 -23 6 -26 26
-7 11 10 13 8 8 -10 -6 -27 1 -29 18 -6 13 17 14 17 33 0 16 -15 24 -16 41 -7
16 8 21 8 21 -2 0 -11 2 -11 8 0 6 8 22 11 45 8 27 -3 34 -1 31 9 -3 8 -13 11
-22 7 -15 -5 -15 -4 -3 11 13 16 15 16 26 0 21 -30 95 -225 89 -234 -3 -5 0
-9 7 -9 7 0 10 -2 7 -5 -8 -8 -268 43 -284 56 -13 11 -18 6 -15 -14 2 -10 -43
21 -76 52 -28 26 -37 27 -30 1 3 -11 -2 -66 -10 -122 -8 -57 -12 -119 -10
-139 4 -27 1 -36 -10 -35 -8 0 -32 -32 -56 -78 l-42 -78 -135 -50 c-147 -55
-162 -63 -158 -86 3 -13 -169 -146 -237 -184 -18 -10 -19 -10 -6 6 8 10 16 27
17 39 10 102 34 195 51 201 9 4 13 9 9 13 -3 3 1 18 11 32 9 14 17 35 19 48 4
40 36 113 47 106 5 -3 7 -2 4 4 -3 5 5 31 19 57 14 26 23 53 21 59 -4 13 5 27
49 71 16 17 33 39 36 48 4 9 17 18 30 20 13 2 23 8 23 13 0 20 17 35 37 35 12
0 19 3 15 6 -11 11 21 34 46 34 21 0 27 7 34 38 8 34 12 37 43 38 43 1 70 12
70 28 0 7 11 23 25 36 14 13 25 18 25 12 0 -7 -6 -12 -12 -13 -10 0 -10 -2 0
-6 10 -4 10 -8 0 -21 -11 -13 -9 -13 12 1 14 10 26 22 26 27 1 6 2 15 3 20 2
16 18 12 25 -6z m-140 -39 c-4 -8 -10 -15 -15 -15 -4 0 -6 7 -3 15 4 8 10 15
15 15 4 0 6 -7 3 -15z m3865 -453 c-20 -13 -25 -24 -22 -44 2 -16 -1 -28 -7
-28 -6 0 -9 -4 -6 -8 3 -4 1 -25 -4 -45 -7 -32 -5 -37 10 -37 12 0 20 -11 24
-35 4 -20 11 -33 16 -30 5 3 8 -21 6 -52 -2 -52 20 -214 23 -170 0 10 5 16 11
12 5 -3 6 -15 1 -28 -5 -13 -7 -42 -4 -65 3 -23 2 -50 -2 -60 -4 -9 -9 -39
-10 -67 -1 -27 -8 -75 -14 -105 -6 -30 -13 -66 -16 -80 -5 -27 -20 -92 -36
-153 -6 -22 -8 -41 -5 -45 3 -3 0 -12 -6 -20 -7 -8 -13 -20 -13 -26 -1 -10
-20 -81 -32 -116 -3 -8 -7 -28 -9 -45 -2 -16 -11 -35 -20 -42 -11 -8 -17 -32
-20 -75 -8 -121 -17 -118 -92 32 l-59 121 25 19 25 20 -28 22 c-27 21 -27 24
-22 91 8 90 -14 213 -57 328 -20 55 -31 100 -28 117 7 38 -14 17 -32 -33 l-14
-40 -5 35 c-3 19 -11 75 -17 125 -6 49 -17 93 -23 97 -9 6 -9 10 1 16 7 5 12
20 11 33 -6 66 -13 58 181 209 67 52 274 190 285 190 6 0 -2 -8 -16 -18z
m-3644 -865 c-103 -76 -169 -168 -211 -292 -41 -123 -35 -281 15 -416 27 -70
109 -162 187 -209 56 -33 62 -35 154 -35 83 0 102 3 155 28 110 52 194 168
232 322 11 48 17 112 17 200 0 135 -11 192 -56 274 -20 36 -20 36 22 -9 51
-54 114 -160 129 -216 6 -22 11 -97 12 -167 1 -118 -1 -135 -32 -233 -29 -92
-38 -110 -79 -150 -77 -75 -137 -109 -242 -139 -48 -14 -72 -14 -150 -6 -186
21 -352 84 -454 174 -47 42 -61 76 -96 247 -22 107 -18 136 43 305 47 130 132
215 304 307 80 43 93 47 50 15z m342 -38 c35 -13 80 -55 100 -93 14 -27 14
-31 -3 -43 -10 -7 -33 -13 -51 -13 -32 0 -62 25 -124 104 -22 28 -22 29 -4 42
23 17 44 18 82 3z m121 -196 c-4 -20 -45 -30 -60 -15 -16 16 1 32 33 32 24 0
30 -4 27 -17z m1683 -201 c-65 -47 -132 -119 -162 -175 -67 -123 -109 -270
-109 -379 0 -71 25 -173 55 -223 24 -43 96 -114 134 -134 35 -19 24 -6 -20 23
-74 50 -139 191 -139 304 l0 51 41 -37 c22 -20 53 -45 68 -55 l28 -17 -4 52
-3 53 13 -41 c8 -22 26 -63 41 -91 46 -83 138 -120 226 -89 54 19 63 20 54 5
-10 -18 27 5 75 45 37 31 45 34 68 25 27 -10 27 -10 8 11 -14 15 -16 23 -7 32
8 8 21 4 51 -17 34 -23 39 -30 30 -46 -5 -11 -14 -19 -19 -19 -5 0 -7 -7 -3
-16 4 -10 -14 -35 -56 -75 -105 -102 -251 -153 -358 -126 -29 8 -50 10 -47 6
2 -4 28 -13 57 -19 117 -24 295 46 374 147 126 162 174 337 139 506 -8 42 -23
91 -32 108 -23 45 -11 46 25 2 66 -78 151 -286 151 -367 0 -63 -44 -207 -92
-298 -58 -112 -128 -166 -243 -187 -149 -28 -374 -2 -501 58 -78 36 -158 116
-205 205 -31 56 -34 70 -37 166 -3 73 1 126 13 175 17 73 69 178 110 224 13
14 41 45 61 68 39 47 145 126 196 148 43 19 48 18 19 -3z m-156 -32 c-10 -11
-21 -17 -24 -14 -3 3 3 12 13 20 28 20 32 17 11 -6z m482 -21 c37 -14 89 -64
104 -101 15 -36 2 -48 -53 -48 -32 0 -43 7 -85 56 -66 76 -69 82 -41 93 31 13
42 13 75 0z m-2532 -111 c23 -65 70 -127 110 -144 45 -18 128 -18 165 1 22 11
29 12 33 2 3 -11 12 -6 102 67 19 15 26 16 46 6 l23 -13 -17 27 c-15 23 -16
27 -3 32 13 5 35 -6 84 -42 8 -5 -20 -44 -28 -39 -4 3 -6 -4 -3 -14 6 -24 -58
-113 -117 -164 -83 -71 -210 -88 -308 -42 -67 31 -161 120 -191 181 -24 47
-51 135 -51 166 0 14 4 13 24 -7 13 -13 47 -35 74 -48 l50 -24 -8 31 c-5 17
-10 49 -13 71 -6 43 -2 36 28 -47z m3845 -6 c-19 -86 -38 -129 -26 -57 9 50
37 148 41 143 2 -2 -5 -40 -15 -86z m-1010 -77 c0 -5 -5 -3 -10 5 -5 8 -10 20
-10 25 0 6 5 3 10 -5 5 -8 10 -19 10 -25z m-183 -1 c3 -9 0 -20 -8 -25 -19
-12 -22 -11 -45 6 -16 13 -17 16 -4 25 23 15 50 12 57 -6z m-1374 -336 c44
-13 101 -61 95 -80 -5 -14 -14 -18 -114 -63 l-62 -28 -41 33 c-23 18 -41 36
-41 40 0 3 -13 14 -30 23 -37 22 -56 55 -41 70 27 27 151 30 234 5z"/>
<path d="M1004 3285 c-9 -21 -2 -26 13 -10 8 9 9 16 3 20 -6 3 -13 -1 -16 -10z"/>
<path d="M2102 4098 c-14 -14 -17 -584 -4 -606 6 -9 36 -12 113 -10 l104 3 3
304 c2 237 -1 306 -10 313 -21 13 -192 10 -206 -4z"/>
<path d="M2382 4102 c-9 -6 -12 -76 -10 -313 l3 -304 110 0 110 0 3 96 3 97
92 4 c165 8 237 71 237 207 0 100 -54 173 -149 202 -45 13 -382 23 -399 11z
m312 -178 c10 -25 7 -59 -6 -72 -7 -7 -31 -12 -55 -12 l-43 0 0 50 0 50 49 0
c35 0 51 -4 55 -16z"/>
<path d="M2962 4102 c-9 -7 -12 -76 -10 -313 l3 -304 110 0 110 0 3 98 3 97
72 0 c126 0 195 33 235 110 19 37 23 57 20 111 -6 118 -71 179 -210 200 -78
11 -318 12 -336 1z m306 -174 c7 -7 12 -24 12 -38 0 -37 -18 -50 -67 -50 l-43
0 0 50 0 50 43 0 c24 0 48 -5 55 -12z"/>
<path d="M3465 4097 c-3 -7 40 -101 95 -209 l100 -197 0 -90 c0 -49 3 -96 6
-105 5 -13 24 -16 109 -16 l102 0 5 103 5 102 93 184 c72 143 95 180 102 168
5 -10 21 -17 38 -17 l30 0 0 -75 0 -75 40 0 40 0 0 74 0 75 33 3 c30 3 32 5
32 43 l0 40 -194 2 c-115 1 -201 -2 -212 -8 -11 -5 -39 -50 -64 -99 -25 -50
-47 -90 -50 -90 -3 0 -25 40 -50 90 -25 49 -54 94 -64 100 -29 15 -190 13
-196 -3z"/>
<path d="M4337 4103 c-4 -3 -7 -57 -7 -120 l0 -113 40 0 40 0 0 40 c0 38 12
52 25 30 9 -14 48 -13 63 2 9 9 12 3 12 -30 l0 -42 40 0 40 0 0 115 c0 94 -3
117 -15 121 -30 12 -63 -6 -87 -47 l-25 -42 -23 34 c-13 19 -30 40 -38 47 -17
13 -54 16 -65 5z"/>
<path d="M4792 30 c0 -19 2 -27 5 -17 2 9 2 25 0 35 -3 9 -5 1 -5 -18z"/>
</g>
</svg>
