<?xml version="1.0" encoding="UTF-8"?>
<svg id="Layer_2" data-name="Layer 2" xmlns="http://www.w3.org/2000/svg" viewBox="0 0 506.19 433.53">
  <defs>
    <style>
      .cls-1 {
        fill: url(#whiteToGreen);
        stroke-width: 0px;
      }
    </style>
    <linearGradient id="whiteToGreen" x1="0%" y1="0%" x2="0%" y2="100%">
      <stop offset="0%" style="stop-color:#142900"/>
      <stop offset="50%" style="stop-color:white"/>
      <stop offset="100%" style="stop-color:#142900"/>
    </linearGradient>
  </defs>
  <path class="cls-1" d="M419.39,106.4c-15.56-27.75-45-44.97-76.83-44.97-15,0-29.86,3.91-43,11.26-20.49,11.51-35.29,30.31-41.68,52.94-2.22,7.91-3.32,15.96-3.32,23.95,0-8.02-1.1-16.04-3.32-23.95-6.36-22.63-21.16-41.43-41.68-52.94-13.12-7.35-28-11.26-43-11.26-31.83,0-61.27,17.22-76.81,44.97L14.23,241.01c-11.51,20.52-14.33,44.27-7.96,66.9,6.36,22.63,21.16,41.43,41.68,52.94,13.12,7.37,28,11.26,43,11.26,31.83,0,61.24-17.22,76.81-44.97l4.47-7.99c14.27,31.21,45.79,52.97,82.32,52.97s68.05-21.76,82.32-52.94l4.47,7.96c15.56,27.75,45,44.97,76.83,44.97,15,0,29.86-3.88,43-11.26,20.49-11.51,35.29-30.31,41.68-52.94,6.36-22.63,3.52-46.38-7.96-66.9l-75.51-134.62ZM254.52,150.53,254.55,149.6,171.61,245.46v.03l-35.77,63.75c-13.88,24.77-45.23,33.6-70,19.7-16.83-9.43-26.29-26.91-26.29-44.89,0-8.53,2.11-17.17,6.59-25.13L121.63,124.3c13.9-24.77,45.26-33.6,70.02-19.7,16.83,9.43,26.29,26.91,26.29,44.89,0,8.53-2.11,17.17-6.59,25.13l-30.99,55.25-.03.03-8.72,15.56ZM308.56,281.6c0,14.92-6.05,28.42-15.82,38.19-9.77,9.77-23.28,15.82-38.19,15.82-29.83,0-54.01-24.18-54.01-54.01,0-6.81,1.27-13.34,3.6-19.34,1.86-4.93,4.45-9.51,7.63-13.59,1.41-1.86,2.96-3.6,4.59-5.23,9.77-9.77,23.28-15.82,38.19-15.82s28.43,6.05,38.19,15.82c1.63,1.63,3.18,3.38,4.59,5.23,3.18,4.08,5.77,8.67,7.63,13.59,2.34,5.99,3.6,12.52,3.6,19.34ZM443.29,328.94c-24.77,13.9-56.12,5.07-70.02-19.7l-35.63-63.52-9.01-16.07-.08-.14-30.79-54.88c-4.48-7.96-6.59-16.58-6.59-25.1,0-18.01,9.48-35.49,26.29-44.92,24.77-13.9,56.12-5.07,70.02,19.7l75.51,134.61c4.47,7.97,6.59,16.58,6.59,25.1,0,18.01-9.48,35.49-26.29,44.92Z"/>
</svg>
