<svg width="349" height="305" viewBox="0 0 349 305" fill="none" xmlns="http://www.w3.org/2000/svg">
<path fill-rule="evenodd" clip-rule="evenodd" d="M346.207 1.14723C346.418 0.876466 346.776 0.762229 347.09 0.901756V0.901756C347.323 1.00571 347.482 1.22919 347.517 1.48235C347.655 2.45591 347.742 3.4353 347.779 4.41966C348.058 19.3167 348.142 34.2151 348.036 49.1147C347.964 67.6413 343.511 85.0223 334.679 101.259C321.802 123.337 303.285 138.642 279.131 147.174C270.82 150.111 262.258 151.781 253.444 152.183C170.69 152.269 87.935 152.269 5.18107 152.183V152.183C3.44117 152.087 1.54278 151.203 1.29593 149.478C1.2813 149.376 1.2706 149.272 1.26383 149.165C0.530469 123.122 9.00712 100.646 26.6938 81.737C42.8199 64.758 62.5782 54.9328 85.9661 52.2614C135.155 51.8568 184.345 51.6423 233.537 51.6192C245.357 51.0066 257.044 49.423 268.599 46.8671C283.55 43.9709 297.678 38.8336 310.983 31.455C316.067 28.7643 320.948 25.7667 325.624 22.4646C330.625 18.663 335.228 14.4028 339.431 9.68545C341.718 6.85713 343.977 4.01143 346.207 1.14723Z" fill="#3A3C46"/>
<path fill-rule="evenodd" clip-rule="evenodd" d="M344.804 153.98C345.398 153.17 346.621 153.358 346.772 154.352V154.352C347.034 168.093 347.162 181.835 347.157 195.579C347.295 206.196 346.225 216.685 343.946 227.046C337.507 252.993 323.186 273.306 300.985 287.987C288.833 295.807 275.604 300.901 261.299 303.271C258.652 303.59 255.997 303.846 253.336 304.042C169.983 304.128 86.6288 304.128 3.27507 304.042C1.96633 303.972 1.04674 303.351 0.513736 302.179C0.227328 301.302 0.0552267 300.403 0 299.482C0.105316 280.886 5.02819 263.676 14.7699 247.852C24.3216 233.248 36.8015 221.881 52.2085 213.753C58.1664 210.695 64.351 208.307 70.7631 206.588C76.2207 205.126 81.8905 204.739 87.5405 204.694C135.571 204.305 183.601 203.9 231.631 203.478C260.536 202.598 287.722 195.363 313.186 181.773C323.159 175.915 332.086 168.7 339.965 160.131C341.652 158.131 343.265 156.08 344.804 153.98Z" fill="#3A3C46"/>
</svg>
