<svg width="1307" height="1307" viewBox="0 0 1307 1307" fill="none" xmlns="http://www.w3.org/2000/svg">
<rect x="0.792969" y="0.699219" width="1306.17" height="1306.17" rx="244.715" fill="#68C3FF"/>
<path fill-rule="evenodd" clip-rule="evenodd" d="M1034.08 280.155C1034.55 279.551 1035.35 279.296 1036.05 279.608V279.608C1036.57 279.84 1036.92 280.338 1037 280.903C1037.31 283.075 1037.5 285.26 1037.58 287.456C1038.21 320.691 1038.4 353.929 1038.16 387.17C1038 428.502 1028.06 467.279 1008.36 503.502C979.63 552.757 938.321 586.904 884.432 605.938C865.891 612.491 846.79 616.216 827.126 617.113C642.503 617.305 457.879 617.305 273.256 617.113V617.113C269.375 616.898 265.139 614.927 264.589 611.079C264.556 610.851 264.532 610.617 264.517 610.379C262.881 552.279 281.792 502.135 321.251 459.949C357.228 422.069 401.308 400.15 453.486 394.19C563.225 393.287 672.968 392.809 782.713 392.757C809.083 391.39 835.157 387.857 860.937 382.155C894.292 375.694 925.811 364.233 955.493 347.771C966.836 341.768 977.725 335.081 988.157 327.714C999.315 319.233 1009.58 309.728 1018.96 299.204C1024.06 292.894 1029.1 286.545 1034.08 280.155Z" fill="#191B20"/>
<path fill-rule="evenodd" clip-rule="evenodd" d="M1030.95 621.066C1032.28 619.258 1035.01 619.68 1035.34 621.896V621.896C1035.93 652.552 1036.21 683.211 1036.2 713.873C1036.51 737.558 1034.12 760.959 1029.04 784.074C1014.67 841.962 982.723 887.28 933.193 920.034C906.081 937.478 876.568 948.845 844.654 954.131C838.748 954.842 832.826 955.415 826.889 955.851C640.928 956.043 454.968 956.043 269.008 955.851C266.088 955.696 264.036 954.309 262.847 951.696C262.208 949.739 261.824 947.733 261.701 945.679C261.936 904.192 272.919 865.796 294.653 830.492C315.962 797.911 343.804 772.552 378.177 754.418C391.469 747.597 405.267 742.268 419.572 738.434C431.748 735.171 444.397 734.309 457.002 734.207C564.156 733.34 671.31 732.437 778.464 731.495C842.952 729.532 903.602 713.392 960.413 683.071C982.663 670.002 1002.58 653.907 1020.16 634.79C1023.92 630.326 1027.52 625.752 1030.95 621.066Z" fill="#191B20"/>
</svg>
