<svg width="1386" height="1386" viewBox="0 0 1386 1386" fill="none" xmlns="http://www.w3.org/2000/svg">
<g clip-path="url(#clip0_653_4876)">
<rect width="1386" height="1386" fill="#191B20"/>
<g opacity="0.012">
<path fill-rule="evenodd" clip-rule="evenodd" d="M-23.392 -85.8591L-1651 1541.74L-1164.74 2028L313.034 550.222L313.034 1753.61L1088.31 1753.61L1088.31 566.581L2544.15 2022.42L3051.96 1514.61L1451.18 -86.1662C1223.45 -69.1439 973.729 -59.7488 711.834 -59.7488C451.519 -59.7488 203.233 -69.031 -23.392 -85.8591Z" fill="#8F9FFE"/>
</g>
<path fill-rule="evenodd" clip-rule="evenodd" d="M795.142 555.995L1027.67 323.466L958.205 254L747.261 464.944L747.261 293.169L636.501 293.169L636.501 462.824L428.371 254.694L355.82 327.245L584.585 556.01C617.052 553.59 652.641 552.254 689.96 552.254C727.205 552.255 762.726 553.585 795.142 555.995Z" fill="#FF815A"/>
<path fill-rule="evenodd" clip-rule="evenodd" d="M594.948 829.183L362.418 1061.71L431.884 1131.18L642.828 920.235V1092.01H753.588V922.356L961.72 1130.49L1034.27 1057.94L805.503 829.169C773.036 831.589 737.449 832.924 700.131 832.924C662.885 832.924 627.364 831.594 594.948 829.183Z" fill="#8F9FFE"/>
<path fill-rule="evenodd" clip-rule="evenodd" d="M828.705 794.21L1061.25 1026.75L1130.71 957.291L919.568 746.149L1091.53 746.149L1091.53 635.388L921.93 635.388L1129.92 427.397L1057.37 354.851L828.662 583.564C831.093 616.095 832.435 651.767 832.435 689.178C832.435 726.366 831.109 761.835 828.705 794.21Z" fill="#57E8B4"/>
<path fill-rule="evenodd" clip-rule="evenodd" d="M556.948 589.491L324.464 357.007L255 426.471L465.949 637.42L294.157 637.42L294.157 748.181L463.864 748.181L255.708 956.337L328.254 1028.88L556.963 800.173C554.54 767.686 553.203 732.074 553.203 694.728C553.203 657.462 554.534 621.921 556.948 589.491Z" fill="#68C3FF"/>
</g>
<defs>
<clipPath id="clip0_653_4876">
<rect width="1386" height="1386" fill="white"/>
</clipPath>
</defs>
</svg>
